# xmcd
#
# Track frame offsets:
#	150
#	3559
#	7470
#	12774
#	17521
#	22825
#	27405
#	32124
#	35199
#	38246
#	42798
#	48604
#	52933
#	57318
#	62093
#	67759
#	73035
#	79649
#	83783
#	88725
#	92942
#	100196
#	105082
#	109550
#	114269
#	117706
#	122118
#	125082
#	129467
#	131845
#	136592
#	140754
#	144331
#	146793
#	150425
#	154308
#	159807
#	166476
#	169774
#	173852
#	177707
#	181479
#	187285
#	193341
#
# Disc length: 2627 seconds
#
# Revision: 0
# Processed by: cddbd v1.5.2PL0 Copyright (c) Steve Scherf et al.
# Submitted via: EasyCDDAExtractor 16.0.8.2
#
DISCID=6f0a412c
DTITLE=Βυζαντινή χορ. Γεωργίου Κακουλίδη - Απολυτίκια, LP 1978, Γ. Κακουλίδης
DYEAR=2005
DGENRE=Βυζ. Εκκλησιαστική
TTITLE0=Απολυτίκιον Υψώσεως Τιμίου Σταυρού
TTITLE1=Απολυτίκιον Αγίων Πατέρων
TTITLE2=Απολυτίκιον Αγίου Δημητρίου
TTITLE3=Απολυτίκιον Αγίων Ασωμάτων
TTITLE4=Απολυτίκιον Αγίου Ιωάννου Χρυσοστόμου
TTITLE5=Απολυτίκιον Αγίας Αικατερίνης
TTITLE6=Απολυτίκιον Αγίου Στυλιανού
TTITLE7=Απολυτίκιον Αγίου Ανδρέου
TTITLE8=Απολυτίκιον Αγίας Βαρβάρας
TTITLE9=Απολυτίκιον Αγίου Νικολάου
TTITLE10=Απολυτίκιον Αγίου Σπυρίδωνος
TTITLE11=Απολυτίκιον Αγίου Ελευθερίου
TTITLE12=Απολυτίκιον Χριστουγέννων
TTITLE13=Απολυτίκιον Αγίου Βασιλείου
TTITLE14=Απολυτίκιον Περιτομής του Χριστού
TTITLE15=Απολυτίκιον Θεοφανείων
TTITLE16=Απολυτίκιον Αγίου Ιωάννου Προδρόμου
TTITLE17=Απολυτίκιον Αγίου Αντωνίου
TTITLE18=Απολυτίκιον Αγίου Αθανασίου
TTITLE19=Απολυτίκιον Αγίου Γρηγορίου
TTITLE20=Απολυτίκιον Τριών Ιεραρχών
TTITLE21=Απολυτίκιον Υπαπαντής του Κυρίου
TTITLE22=Απολυτίκιον Αγίου Χαραλάμπους
TTITLE23=Απολυτίκιον Ευαγγελισμού της Θεοτόκου
TTITLE24=Απολυτίκιον Αγίου Γεωργίου
TTITLE25=Απολυτίκιον Αγίων Κωνσταντίνου και Ελένης
TTITLE26=Απολυτίκιον Πέτρου και Παύλου
TTITLE27=Απολυτίκιον Αποστόλου Παύλου
TTITLE28=Απολυτίκιον Αγίων Αναργύρων
TTITLE29=Απολυτίκιον Αγίας Ευφημίας
TTITLE30=Απολυτίκιον Προφήτου Ηλιού
TTITLE31=Απολυτίκιον Αγίας Παρασκευής
TTITLE32=Απολυτίκιον Αγίου Παντελεήμωνος
TTITLE33=Απολυτίκιον Μεταμορφώσεως του Κυρίου
TTITLE34=Απολυτίκιον Κοιμήσεως της Θεοτόκου
TTITLE35=Απολυτίκιον Ορθοδοξίας
TTITLE36=Απολυτίκιον Ακαθίστου Ύμνου
TTITLE37=Απολυτίκιον Αναστάσεως του Κυρίου [Χριστός Ανέστη]
TTITLE38=Απολυτίκιον Κυριακής του Θωμά
TTITLE39=Απολυτίκιον Αναλήψεως
TTITLE40=Απολυτίκιον Πεντηκοστής
TTITLE41=Απολυτίκιον Προστασία Χριστιανών
TTITLE42=Απολυτίκιον Η Παρθένος σήμερον
TTITLE43=Απολυτίκιον Επεφάνης σήμερον
EXTD=
EXTT0=
EXTT1=
EXTT2=
EXTT3=
EXTT4=
EXTT5=
EXTT6=
EXTT7=
EXTT8=
EXTT9=
EXTT10=
EXTT11=
EXTT12=
EXTT13=
EXTT14=
EXTT15=
EXTT16=
EXTT17=
EXTT18=
EXTT19=
EXTT20=
EXTT21=
EXTT22=
EXTT23=
EXTT24=
EXTT25=
EXTT26=
EXTT27=
EXTT28=
EXTT29=
EXTT30=
EXTT31=
EXTT32=
EXTT33=
EXTT34=
EXTT35=
EXTT36=
EXTT37=
EXTT38=
EXTT39=
EXTT40=
EXTT41=
EXTT42=
EXTT43=
PLAYORDER=
